# xmcd CD database file
#
# Track frame offsets:
#	150
#	21399
#	43528
#	60536
#	81007
#	100810
#	114322
#	132126
#	152356
#	173359
#	198933
#	219365
#	246466
#
# Disc length: 3414 seconds
#
# Revision: 2
# Processed by: cddbd v1.5.2PL0 Copyright (c) Steve Scherf et al.
# Submitted via: CDex 1.51
#
DISCID=9d0d540d
DTITLE=Rab McCullough - Belfast Breakdown
DYEAR=2003
DGENRE=Blues
TTITLE0=Traveling With Blues
TTITLE1=Don't Get Your Hopes Up
TTITLE2=Blues Radio
TTITLE3=Dirty Black Water
TTITLE4=Can't Get You Out Of My Mind
TTITLE5=Red Skirt
TTITLE6=A Little Rain Must Fall
TTITLE7=Before The River Runs Dry
TTITLE8=Voodoo Doll
TTITLE9=When The Blues Come Calling
TTITLE10=Jimi's Story
TTITLE11=Dancing Shoes
TTITLE12=Mariano
EXTD=YEAR: 2003
EXTT0=
EXTT1=
EXTT2=
EXTT3=
EXTT4=
EXTT5=
EXTT6=
EXTT7=
EXTT8=
EXTT9=
EXTT10=
EXTT11=
EXTT12=
PLAYORDER=
